<svg width="375" height="391" viewBox="0 0 375 391" fill="none" xmlns="http://www.w3.org/2000/svg">
<g filter="url(#filter0_dddddd)">
<path d="M27 116.527C27 115.48 27.3308 114.618 27.9924 113.94C28.6539 113.263 29.4959 112.924 30.5184 112.924H48.5614C53.012 112.924 56.9513 113.94 60.3795 115.973C63.8077 117.943 66.484 120.684 68.4086 124.195C70.3332 127.705 71.2955 131.77 71.2955 136.39C71.2955 140.886 70.3332 144.889 68.4086 148.399C66.484 151.849 63.8077 154.589 60.3795 156.622C56.9513 158.593 53.012 159.578 48.5614 159.578H34.0368V181.473C34.0368 182.52 33.706 183.382 33.0444 184.06C32.3828 184.737 31.5408 185.076 30.5184 185.076C29.4959 185.076 28.6539 184.737 27.9924 184.06C27.3308 183.382 27 182.52 27 181.473V126.566M127.118 159.855C127.058 154.928 125.915 150.524 123.69 146.644C121.525 142.764 118.548 139.715 114.759 137.498C111.03 135.219 106.79 134.08 102.038 134.08C97.287 134.08 93.0168 135.219 89.2278 137.498C85.4388 139.715 82.4316 142.764 80.2063 146.644C78.0412 150.524 76.9586 154.928 76.9586 159.855C76.9586 164.721 78.0111 169.094 80.1161 172.974C82.2813 176.854 85.1982 179.933 88.867 182.212C92.5357 184.429 96.6856 185.538 101.317 185.538C105.707 185.538 109.616 184.522 113.045 182.489C117.107 180.081 118.097 180.087 120.081 176.577C120.081 177.624 120.412 183.475 121.074 184.152C121.735 184.768 122.577 185.076 123.6 185.076C124.622 185.076 125.464 184.768 126.126 184.152C126.787 183.475 127.118 182.613 127.118 181.566V170.449M120.262 159.855C120.262 163.489 119.45 166.784 117.826 169.74C116.262 172.635 114.097 174.914 111.33 176.577C108.624 178.24 105.527 179.071 102.038 179.071C98.6102 179.071 95.5128 178.24 92.7462 176.577C89.9796 174.914 87.7844 172.635 86.1605 169.74C84.5366 166.784 83.7247 163.489 83.7247 159.855C83.7247 156.16 84.5366 152.865 86.1605 149.97C87.7844 147.075 89.9796 144.797 92.7462 143.134C95.5128 141.409 98.6102 140.547 102.038 140.547C105.527 140.547 108.624 141.409 111.33 143.134C114.097 144.797 116.262 147.075 117.826 149.97C119.45 152.865 120.262 156.16 120.262 159.855ZM120.262 159.855L120.233 158.661M147.485 181.566C147.485 182.674 147.184 183.536 146.583 184.152C145.981 184.768 145.139 185.076 144.057 185.076C142.974 185.076 142.132 184.768 141.531 184.152C140.929 183.536 140.628 182.674 140.628 181.566V138.052C140.628 136.944 140.929 136.082 141.531 135.466C142.132 134.85 142.974 134.542 144.057 134.542C145.139 134.542 145.981 134.85 146.583 135.466C147.184 136.082 147.485 136.944 147.485 138.052V142.733C149.289 139.715 150.522 138.299 153.349 136.574C156.236 134.85 159.423 133.988 162.912 133.988C165.678 133.988 167.813 134.388 169.317 135.189C170.82 135.989 171.392 137.159 171.031 138.699C170.79 139.623 170.369 140.239 169.768 140.547C169.227 140.855 168.535 140.978 167.693 140.916C166.911 140.855 166.009 140.793 164.986 140.732C161.618 140.424 158.611 140.793 155.965 141.84C153.379 142.826 151.304 144.365 149.74 146.459C148.237 148.553 147.485 151.048 147.485 153.943V171.218M199.81 112.924H206.847M298.833 137.406C300.336 133.772 302.381 130.569 304.968 127.798C307.554 125.026 310.531 122.84 313.899 121.238C317.327 119.637 320.996 118.836 324.905 118.836C328.574 118.836 331.791 119.36 334.558 120.407C337.325 121.392 339.881 122.932 342.226 125.026C342.828 125.519 343.429 125.796 344.031 125.858C344.692 125.919 345.263 125.827 345.745 125.581C346.226 125.334 346.527 124.965 346.647 124.472C347.128 124.226 347.489 123.856 347.729 123.363C347.97 122.809 348.03 122.255 347.91 121.7C347.85 121.084 347.549 120.561 347.008 120.13C343.7 117.297 340.272 115.233 336.723 113.94C333.175 112.647 329.235 112 324.905 112C319.973 112 315.372 112.985 311.102 114.956C306.892 116.866 303.163 119.514 299.915 122.901C296.728 126.289 294.232 130.231 292.428 134.727C290.684 139.161 289.811 143.903 289.811 148.954C289.811 154.066 290.714 158.87 292.518 163.366C294.322 167.8 296.818 171.742 300.006 175.191C303.253 178.578 306.982 181.227 311.192 183.136C315.463 185.045 320.033 186 324.905 186C328.995 186 332.934 185.415 336.723 184.245C340.512 183.013 343.94 180.95 347.008 178.055C347.369 177.624 347.609 177.223 347.729 176.854C347.91 176.423 348 175.961 348 175.468C348 174.483 347.699 173.682 347.098 173.066C346.496 172.45 345.775 172.081 344.933 171.958C344.151 171.834 343.399 172.081 342.677 172.697C340.031 174.791 337.234 176.392 334.287 177.501C331.34 178.609 328.213 179.164 324.905 179.164C320.996 179.164 317.327 178.394 313.899 176.854C310.531 175.253 307.554 173.066 304.968 170.295C302.381 167.523 300.336 164.32 298.833 160.687M199.81 134.08V119.483H178.429C177.467 119.483 176.685 119.175 176.084 118.559C175.482 117.943 175.181 117.174 175.181 116.25C175.181 115.264 175.482 114.464 176.084 113.848C176.685 113.232 177.467 112.924 178.429 112.924H228.318C229.28 112.924 230.062 113.232 230.664 113.848C231.265 114.464 231.566 115.264 231.566 116.25C231.566 117.174 231.265 117.943 230.664 118.559C230.062 119.175 229.28 119.483 228.318 119.483H206.847V159.855M199.81 141.84V145.043V181.473C199.81 182.459 200.141 183.321 200.802 184.06C201.524 184.737 202.366 185.076 203.328 185.076C204.351 185.076 205.193 184.737 205.855 184.06C206.516 183.321 206.847 182.459 206.847 181.473V168.139M248.572 156.622V138.145C248.572 137.036 248.241 136.174 247.58 135.558C246.978 134.881 246.166 134.542 245.144 134.542C244.061 134.542 243.189 134.881 242.528 135.558C241.926 136.174 241.625 137.036 241.625 138.145V181.473C241.625 182.582 241.926 183.475 242.528 184.152C243.189 184.768 244.061 185.076 245.144 185.076C246.166 185.076 246.978 184.768 247.58 184.152C248.241 183.475 248.572 182.582 248.572 181.473V168.139M274.65 156.622V138.145C274.65 137.036 274.319 136.174 273.657 135.558C273.056 134.881 272.244 134.542 271.222 134.542C270.139 134.542 269.267 134.881 268.605 135.558C268.004 136.174 267.703 137.036 267.703 138.145V181.473C267.703 182.582 268.004 183.475 268.605 184.152C269.267 184.768 270.139 185.076 271.222 185.076C272.244 185.076 273.056 184.768 273.657 184.152C274.319 183.475 274.65 182.582 274.65 181.473V168.139M34.0368 152.649H48.5614C51.6287 152.649 54.3652 151.972 56.7709 150.617C59.1766 149.2 61.0411 147.26 62.3642 144.797C63.7475 142.333 64.4392 139.531 64.4392 136.39C64.4392 133.125 63.7475 130.261 62.3642 127.798C61.0411 125.334 59.1766 123.394 56.7709 121.978C54.3652 120.561 51.6287 119.853 48.5614 119.853H34.0368V152.649ZM245.054 124.934C243.73 124.934 242.588 124.441 241.625 123.456C240.663 122.47 240.182 121.269 240.182 119.853C240.182 118.313 240.663 117.112 241.625 116.25C242.648 115.326 243.821 114.864 245.144 114.864C246.407 114.864 247.519 115.326 248.482 116.25C249.504 117.112 250.015 118.313 250.015 119.853C250.015 121.269 249.534 122.47 248.572 123.456C247.61 124.441 246.437 124.934 245.054 124.934ZM271.131 124.934C269.808 124.934 268.665 124.441 267.703 123.456C266.741 122.47 266.26 121.269 266.26 119.853C266.26 118.313 266.741 117.112 267.703 116.25C268.726 115.326 269.898 114.864 271.222 114.864C272.485 114.864 273.597 115.326 274.559 116.25C275.582 117.112 276.093 118.313 276.093 119.853C276.093 121.269 275.612 122.47 274.65 123.456C273.687 124.441 272.515 124.934 271.131 124.934Z" stroke="#FFCEFD" stroke-width="2"/>
</g>
<defs>
<filter id="filter0_dddddd" x="-174" y="-85" width="723" height="476" filterUnits="userSpaceOnUse" color-interpolation-filters="sRGB">
<feFlood flood-opacity="0" result="BackgroundImageFix"/>
<feColorMatrix in="SourceAlpha" type="matrix" values="0 0 0 0 0 0 0 0 0 0 0 0 0 0 0 0 0 0 127 0"/>
<feOffset/>
<feGaussianBlur stdDeviation="30"/>
<feColorMatrix type="matrix" values="0 0 0 0 1 0 0 0 0 0 0 0 0 0 0.96 0 0 0 1 0"/>
<feBlend mode="normal" in2="BackgroundImageFix" result="effect1_dropShadow"/>
<feColorMatrix in="SourceAlpha" type="matrix" values="0 0 0 0 0 0 0 0 0 0 0 0 0 0 0 0 0 0 127 0"/>
<feOffset/>
<feGaussianBlur stdDeviation="2"/>
<feColorMatrix type="matrix" values="0 0 0 0 1 0 0 0 0 0 0 0 0 0 0.96 0 0 0 1 0"/>
<feBlend mode="normal" in2="effect1_dropShadow" result="effect2_dropShadow"/>
<feColorMatrix in="SourceAlpha" type="matrix" values="0 0 0 0 0 0 0 0 0 0 0 0 0 0 0 0 0 0 127 0"/>
<feOffset/>
<feGaussianBlur stdDeviation="10"/>
<feColorMatrix type="matrix" values="0 0 0 0 1 0 0 0 0 0 0 0 0 0 0.96 0 0 0 1 0"/>
<feBlend mode="normal" in2="effect2_dropShadow" result="effect3_dropShadow"/>
<feColorMatrix in="SourceAlpha" type="matrix" values="0 0 0 0 0 0 0 0 0 0 0 0 0 0 0 0 0 0 127 0"/>
<feOffset/>
<feGaussianBlur stdDeviation="5"/>
<feColorMatrix type="matrix" values="0 0 0 0 1 0 0 0 0 0 0 0 0 0 0.96 0 0 0 1 0"/>
<feBlend mode="normal" in2="effect3_dropShadow" result="effect4_dropShadow"/>
<feColorMatrix in="SourceAlpha" type="matrix" values="0 0 0 0 0 0 0 0 0 0 0 0 0 0 0 0 0 0 127 0"/>
<feOffset/>
<feGaussianBlur stdDeviation="50"/>
<feColorMatrix type="matrix" values="0 0 0 0 1 0 0 0 0 0 0 0 0 0 0.96 0 0 0 1 0"/>
<feBlend mode="normal" in2="effect4_dropShadow" result="effect5_dropShadow"/>
<feColorMatrix in="SourceAlpha" type="matrix" values="0 0 0 0 0 0 0 0 0 0 0 0 0 0 0 0 0 0 127 0"/>
<feOffset dy="4"/>
<feGaussianBlur stdDeviation="100"/>
<feColorMatrix type="matrix" values="0 0 0 0 1 0 0 0 0 0 0 0 0 0 0.96 0 0 0 1 0"/>
<feBlend mode="normal" in2="effect5_dropShadow" result="effect6_dropShadow"/>
<feBlend mode="normal" in="SourceGraphic" in2="effect6_dropShadow" result="shape"/>
</filter>
</defs>
</svg>
